<?xml version="1.0" encoding="UTF-8"?><svg id="a" xmlns="http://www.w3.org/2000/svg" viewBox="0 0 332.24 321.32"><defs><style>.b{fill:#f37626;}</style></defs><path class="b" d="M99,280.53c.11,.06,.1,.06,.01,0h-.01Z"/><path class="b" d="M316.17,91.08c30.69-46.9-25.1-103.75-72.57-73.97C192.68-9.04,128.09-4.98,81.05,27.65,26.35-5.51-29.6,69.63,17.95,112.47c-33.27,100.96,46.77,210.55,153.34,208.81,115.73,2.56,196.89-127.23,144.88-230.2ZM22.75,61.91c6.04-16.23,27.34-25.75,43.4-19.92,12.76,3.04,24.8,27.27,25.07,31.81,5.51-7.52,9.87-23.26,8.47-33.6,53.46-32.57,120.04-22.57,166.37,15.72,2.5-7.51,4.62-18.13,.98-25.88,33.8-4.02,49.61,36.69,24.65,58.62,1.56,2.84,3.09,5.73,4.55,8.66-71.06,14.46-35.59-6.76-100.86-6.63-40.49,3.16-51.16,22.63-62.15,28.31-3.17,1.64-98.79,11.72-98.8,11.72,.37-1.66,.74-3.31,1.16-4.96,12.85-1.19,26.34-8.46,31.4-19.96-25.22,6.04-54.32-15.75-44.24-43.9Zm178.46,96.94c-14.1,1.16-45.09-24.63-46.98-32.53-2.09-8.74,26.78-20.49,42.19-21.43,15.42-.94,36.48,2.82,39.95,10.91,3.02,7.03-21.43,41.93-35.16,43.06Zm-102.64,121.61l173.05-21.96c-44.55,45.97-118.48,55.44-173.05,21.96Zm186.7-38.55l-203.98,25.91c-5.15-4.33-9.99-9.02-14.47-14.04l229.05-29.21h0c-3.12,6.03-6.66,11.83-10.6,17.34Zm23.81-56.15L44.25,219.54c-9.8-20.9-14.21-44.57-12.75-67.66,0,0,101.5-15.65,106.62-13.45,60.7,47.69,68.11,54.5,116.81-13.89,5.11-4.27,49.48-7.47,49.49-7.47h0c7.21,22.04,8.84,45.88,4.67,68.69Z"/></svg>