<?xml version="1.0" encoding="UTF-8"?><svg id="a" xmlns="http://www.w3.org/2000/svg" viewBox="0 0 332.24 321.32"><defs><style>.b{fill:#fdcc99;}.c{fill:#fff;}.d{fill:#f37626;}</style></defs><path class="c" d="M99,280.53l172.3-21.97c-3.18,3.24,7.09-7.02,13.96-16.63l-203.86,25.99c6.6,5.54,18.81,13.34,17.6,12.6Z"/><path class="c" d="M66.81,253.78l229.05-29.21c6.2-12.03,10.71-25.07,13.21-38.8L44.25,219.54c5.83,12.53,13.47,24.05,22.56,34.24Z"/><path class="c" d="M138.11,138.44c60.7,47.69,68.11,54.5,116.81-13.89,5.11-4.27,49.48-7.47,49.49-7.47-2.49-7.65-8.57-20.56-8.16-19.74-71.08,14.46-35.6-6.76-100.88-6.63-40.49,3.16-51.16,22.63-62.15,28.31-3.17,1.64-98.79,11.72-98.8,11.72-1.51,6.95-2.49,14.01-2.93,21.15,0,0,101.5-15.65,106.62-13.45Zm58.3-33.54c15.42-.94,36.48,2.82,39.95,10.91,3.02,7.03-21.43,41.93-35.16,43.06-14.1,1.16-45.09-24.63-46.98-32.53-2.09-8.74,26.78-20.49,42.19-21.43Z"/><path class="d" d="M316.17,91.08c30.69-46.9-25.1-103.75-72.57-73.97C192.68-9.03,128.09-4.98,81.05,27.65,26.35-5.51-29.6,69.63,17.95,112.47c-33.27,100.96,46.77,210.55,153.34,208.81,115.73,2.56,196.89-127.23,144.88-230.2Zm-7.09,94.69h0c-2.5,13.73-7.01,26.77-13.21,38.8h0c-3.12,6.03-6.66,11.83-10.61,17.36h0c-45.69,65.84-143.17,78.41-203.86,25.99h0c-5.19-4.36-10.07-9.09-14.58-14.14h0c-9.1-10.19-16.73-21.72-22.56-34.24h0c-9.8-20.9-14.21-44.57-12.75-67.66h0c.44-7.14,1.42-14.2,2.93-21.15h0c.37-1.66,.74-3.31,1.16-4.96,12.85-1.19,26.34-8.46,31.4-19.96-25.22,6.04-54.32-15.75-44.24-43.9,6.04-16.23,27.34-25.75,43.4-19.92,12.76,3.04,24.8,27.27,25.07,31.81,5.51-7.52,9.87-23.26,8.47-33.6,53.46-32.57,120.04-22.57,166.37,15.72,2.5-7.51,4.62-18.13,.98-25.88,33.8-4.02,49.61,36.69,24.65,58.62,4.98,9.02,9.62,18.57,12.72,28.41h0c7.21,22.04,8.84,45.88,4.67,68.69Z"/><path class="b" d="M195.37,90.7c64.96-.2,29.92,21.1,100.88,6.63-.83-1.7-3.63-6.91-4.56-8.66,24.97-21.94,9.14-62.65-24.65-58.62,3.64,7.74,1.52,18.39-.98,25.88C219.74,17.63,153.11,7.65,99.69,40.21c1.41,10.3-2.97,26.12-8.47,33.6h0c-.34-4.63-12.31-28.76-25.08-31.81-16.06-5.83-37.35,3.68-43.4,19.92-10.08,28.13,19.03,49.95,44.24,43.9h0c-5.06,11.5-18.55,18.77-31.4,19.96-.42,1.65-.79,3.3-1.16,4.96,0,0,95.63-10.09,98.8-11.72,10.98-5.68,21.66-25.15,62.15-28.31Z"/><path class="b" d="M99,280.53c53.71,33.57,128.71,23.97,172.3-21.97l-172.3,21.97Z"/><path class="b" d="M66.81,253.78c4.52,5.06,9.39,9.79,14.58,14.14l203.86-25.99c3.95-5.52,7.49-11.33,10.61-17.36l-229.05,29.21h0Z"/><path class="b" d="M304.41,117.08s-44.38,3.19-49.49,7.47c-48.81,68.68-56.41,61.29-116.81,13.89-5.11-2.2-106.61,13.45-106.62,13.45-1.46,23.08,2.96,46.76,12.75,67.66l264.83-33.77c.2-1.08,7.04-34.46-4.67-68.69Z"/><path class="d" d="M201.21,158.85c13.73-1.13,38.18-36.03,35.16-43.06-3.48-8.08-24.54-11.85-39.95-10.91-15.41,.94-44.28,12.69-42.19,21.43,1.89,7.9,32.88,33.69,46.98,32.53Z"/></svg>